# xmcd
#
# Track frame offsets:
#	150
#	18862
#	37835
#	58652
#	74990
#	93822
#	112305
#	133585
#	153817
#	170230
#	188097
#	207427
#	226470
#	245577
#	262172
#	289717
#
# Disc length: 4118 seconds
#
# Revision: 2
# Processed by: cddbd v1.5.1PL2 Copyright (c) Steve Scherf et al.
# Submitted via: dBpowerAMP V4.0
#
DISCID=ee101410
DTITLE=Teedra Moses - Complex Simplicity 
DYEAR=2005
DGENRE=R&B
TTITLE0=Be Your Girl
TTITLE1=You'll Never Find (A Better Woman)
TTITLE2=Caution
TTITLE3=Backstroke
TTITLE4=No More Tears
TTITLE5=Rescue Me
TTITLE6=Take Me
TTITLE7=You Better Tell Her
TTITLE8=Outta My Head
TTITLE9=Doin' You
TTITLE10=Complex Simplicity
TTITLE11=For A Lifetime
TTITLE12=Caught Up
TTITLE13=Last Day
TTITLE14=I Think Of You (Shirley's Song)
TTITLE15=Still Your Girl featuring Raphael Saadiq, Truth Hurts, and Scipio
EXTD=
EXTT0=
EXTT1=
EXTT2=
EXTT3=
EXTT4=
EXTT5=
EXTT6=
EXTT7=
EXTT8=
EXTT9=
EXTT10=
EXTT11=
EXTT12=
EXTT13=
EXTT14=
EXTT15=
PLAYORDER=
